<svg xmlns="http://www.w3.org/2000/svg" width="64" height="64" viewBox="0 0 64 64" fill="none">
  <g clip-path="url(#clip0_1_286)">
    <mask id="path-1-outside-1_1_286" maskUnits="userSpaceOnUse" x="3.69849" y="-1" width="57" height="66" fill="black">
      <rect fill="white" x="3.69849" y="-1" width="57" height="66"/>
      <path d="M59.2538 59.2296L58.3771 51.9714C58.3757 51.9593 58.374 51.9473 58.372 51.9352C58.1312 50.4523 57.44 49.0794 56.3921 48.0028C55.3442 46.9263 53.9905 46.1982 52.5146 45.9174L43.5746 44.2357H43.574L41.1528 43.7803C43.4992 43.3242 45.8093 42.6973 48.0644 41.9046C49.0713 41.5494 49.9239 40.8562 50.4771 39.9429C51.0302 39.0297 51.2497 37.9529 51.0981 36.896L49.7031 27.3326H50.4814C50.9803 27.3321 51.4586 27.1336 51.8113 26.7808C52.1641 26.4281 52.3625 25.9498 52.363 25.4509V21.6305C52.3625 21.1316 52.1641 20.6533 51.8113 20.3005C51.4586 19.9478 50.9803 19.7493 50.4814 19.7488H48.9339C48.813 19.4603 48.6599 19.1864 48.4778 18.9321L47.6996 13.5971C47.148 9.81951 45.2551 6.36666 42.367 3.86996C39.4789 1.37326 35.7886 -0.000459377 31.9709 1.15233e-07H31.2656C27.3947 0.00510976 23.6582 1.42045 20.7554 3.98121C17.8525 6.54197 15.9821 10.0727 15.4941 13.9128L14.762 19.7488H13.2313C12.7324 19.7493 12.254 19.9477 11.9012 20.3005C11.5485 20.6533 11.35 21.1316 11.3495 21.6305V25.4509C11.35 25.9498 11.5485 26.4281 11.9012 26.7809C12.254 27.1337 12.7324 27.3321 13.2313 27.3326H13.8108L12.602 36.9683C12.4758 38.0084 12.7065 39.0606 13.2562 39.9526C13.8059 40.8446 14.6421 41.5235 15.628 41.8784C17.9531 42.7005 20.337 43.3458 22.7593 43.8088L20.6965 44.2144L20.6826 44.2171L11.844 45.9552C10.4689 46.2277 9.20118 46.8897 8.19171 47.8623C7.18225 48.835 6.47363 50.0773 6.15026 51.4412C6.14626 51.4577 6.1428 51.4742 6.13988 51.4907L4.80276 58.9422C4.66408 59.548 4.66372 60.1773 4.80173 60.7832C4.93973 61.3892 5.21253 61.9562 5.59986 62.4422C5.98719 62.9282 6.47907 63.3206 7.03895 63.5903C7.59883 63.86 8.21231 64 8.83376 64H55.1663C55.7631 64 56.3528 63.8709 56.895 63.6215C57.4372 63.3721 57.919 63.0083 58.3073 62.5551C58.6957 62.1019 58.9813 61.57 59.1447 60.996C59.308 60.422 59.3453 59.8194 59.2538 59.2296ZM49.2544 21.6266L50.4881 21.6304L50.4814 25.4576H49.2544V21.6266ZM48.0074 28.6975L49.2426 37.1668C49.3322 37.7935 49.2017 38.432 48.8734 38.9734C48.5451 39.5148 48.0392 39.9256 47.442 40.1359C44.8436 41.0493 42.1702 41.7335 39.4525 42.1806V38.5658L40.1306 38.1415C41.1188 37.526 41.9527 36.6922 42.5685 35.7043H42.7215C43.804 35.7032 44.8418 35.2728 45.6073 34.5075C46.3728 33.7421 46.8035 32.7044 46.8049 31.622V29.5257C47.2512 29.3223 47.6582 29.0419 48.0074 28.6975ZM35.4961 38.8295C34.4031 39.5072 33.1425 39.8663 31.8564 39.8663C30.5703 39.8663 29.3097 39.5072 28.2166 38.8295L26.273 37.6135C26.2699 37.6114 26.2664 37.6095 26.2631 37.6074L24.5756 36.5516C23.7472 36.0374 23.0641 35.3197 22.5914 34.4668C22.1188 33.6139 21.8723 32.6542 21.8754 31.6791V18.9925C22.7968 18.8661 23.6787 18.5368 24.4575 18.0284C25.2363 17.52 25.8926 16.8452 26.3791 16.0526C26.9751 16.6417 27.6211 17.1779 28.3099 17.6551L28.4919 17.779C32.7579 20.6704 37.3633 19.9965 41.8369 19.2297V31.6794C41.8378 32.4159 41.6975 33.1457 41.4236 33.8294H35.1376C34.9467 33.2889 34.593 32.8208 34.1252 32.4895C33.6574 32.1582 33.0985 31.98 32.5253 31.9792H30.9331C30.1987 31.9801 29.4946 32.2722 28.9754 32.7916C28.4561 33.3109 28.164 34.015 28.1631 34.7494V34.7844C28.164 35.5188 28.4561 36.2228 28.9754 36.7421C29.4947 37.2614 30.1987 37.5535 30.9331 37.5544H32.5253C33.0985 37.5536 33.6574 37.3754 34.1252 37.0441C34.5929 36.7128 34.9466 36.2448 35.1376 35.7044H40.1916C39.8742 36.0271 39.52 36.3115 39.1364 36.5519L35.4961 38.8295ZM37.5775 39.739V44.0075C37.5771 44.1141 37.5525 44.2192 37.5056 44.3149C37.4587 44.4107 37.3906 44.4945 37.3066 44.5601L32.0116 48.6814L26.9444 44.5719C26.8014 44.4566 26.7098 44.2896 26.6894 44.1071C26.6889 44.1003 26.6889 44.0934 26.6883 44.0866C26.6868 44.0675 26.685 44.0483 26.685 44.0288V40.0831L27.2225 40.4194C28.6142 41.2822 30.2191 41.7393 31.8565 41.7392C33.4939 41.7392 35.0988 41.282 36.4904 40.4191L37.5775 39.739ZM33.4203 34.7492V34.7842C33.42 35.0215 33.3256 35.249 33.1578 35.4168C32.99 35.5846 32.7625 35.679 32.5253 35.6792H30.9331C30.6958 35.679 30.4684 35.5846 30.3006 35.4168C30.1328 35.249 30.0384 35.0215 30.0381 34.7842V34.7492C30.0384 34.5119 30.1328 34.2844 30.3006 34.1166C30.4683 33.9488 30.6958 33.8544 30.9331 33.8541H32.5253C32.7626 33.8544 32.9901 33.9488 33.1578 34.1166C33.3256 34.2844 33.42 34.5119 33.4203 34.7492ZM43.4403 33.7067C43.6208 33.046 43.7121 32.3642 43.7119 31.6793V29.9005H44.9299V31.622C44.9291 32.0812 44.7852 32.5288 44.5182 32.9024C44.2512 33.2761 43.8744 33.5573 43.4403 33.7069V33.7067ZM47.3794 21.3512V25.7301C47.3787 26.3387 47.1367 26.9221 46.7064 27.3524C46.2761 27.7827 45.6927 28.0248 45.0841 28.0255H43.7119V19.0559H45.0841C45.6927 19.0566 46.2761 19.2986 46.7064 19.729C47.1367 20.1593 47.3787 20.7427 47.3794 21.3512ZM17.3544 14.1461C17.7849 10.7591 19.4347 7.64489 21.9952 5.38628C24.5557 3.12767 27.8515 1.87939 31.2658 1.875H31.971C35.3383 1.87452 38.5932 3.08609 41.1406 5.28818C43.688 7.49026 45.3577 10.5357 45.8443 13.8676L46.3568 17.3805C45.9456 17.2482 45.5162 17.1808 45.0843 17.1809H42.8218C42.8171 17.1807 42.8126 17.1811 42.808 17.1809H42.7745L42.7708 17.1811C42.7415 17.1812 42.7123 17.1827 42.6833 17.1856L42.6708 17.187C42.6528 17.189 42.6349 17.1901 42.617 17.1933L41.9753 17.3034C37.5294 18.0693 33.33 18.7926 29.544 16.2269L29.3734 16.1106C28.4299 15.457 27.5808 14.6768 26.8499 13.7919C26.7429 13.6623 26.6031 13.5638 26.4451 13.5068C26.287 13.4498 26.1166 13.4363 25.9515 13.4677C25.7864 13.4992 25.6329 13.5744 25.5069 13.6855C25.3808 13.7966 25.287 13.9396 25.2351 14.0994C24.9432 15.0035 24.3694 15.7904 23.5979 16.3449C22.8264 16.8995 21.8977 17.1924 20.9476 17.181L20.9435 17.1811L20.938 17.1809H18.6284C18.0421 17.181 17.4625 17.3057 16.928 17.5466L17.3544 14.1461ZM16.3331 21.3511C16.3339 20.7426 16.5759 20.1593 17.0062 19.729C17.4364 19.2988 18.0198 19.0567 18.6283 19.056H20.0004V28.0255H18.6283C18.0197 28.0248 17.4363 27.7827 17.006 27.3524C16.5757 26.9221 16.3337 26.3387 16.333 25.7301L16.3331 21.3511ZM13.2244 25.4509L13.2311 21.6238H14.458V25.4548L13.2244 25.4509ZM16.2534 40.1109C15.6695 39.9004 15.1744 39.498 14.849 38.9695C14.5236 38.441 14.3873 37.8177 14.4623 37.2016L15.5493 28.5364C15.9389 28.966 16.4142 29.3092 16.9444 29.5442C17.4747 29.7791 18.0483 29.9005 18.6283 29.9005H20.0004V31.6793C19.9963 32.9724 20.3232 34.2452 20.95 35.3763C21.5768 36.5074 22.4827 37.4593 23.5814 38.1414L24.8101 38.9101V42.26C21.8969 41.8131 19.0321 41.0936 16.2534 40.1109ZM25.1203 45.2554C25.2818 45.5527 25.5003 45.8153 25.7633 46.0283L30.947 50.232C31.2423 50.4736 31.6112 50.6074 31.9928 50.6111C32.3744 50.6148 32.7458 50.4882 33.0458 50.2524L38.4579 46.0401C38.7173 45.8376 38.9353 45.587 39.1001 45.3021L42.347 45.9128C42.2263 46.2799 41.9999 46.6032 41.6963 46.8423L32.0509 54.3491C32.0114 54.38 31.9626 54.3965 31.9125 54.396C31.8624 54.3955 31.814 54.3779 31.7751 54.3462L22.5351 46.8522C22.2289 46.604 22.0059 46.268 21.8961 45.8894L25.1203 45.2554ZM56.8875 61.3306C56.6753 61.5799 56.4115 61.78 56.1143 61.9172C55.8171 62.0543 55.4936 62.1252 55.1663 62.125H8.83376C8.49286 62.125 8.15637 62.048 7.84948 61.8995C7.5426 61.7511 7.27326 61.5352 7.06164 61.2679C6.85003 61.0007 6.70161 60.689 6.62751 60.3562C6.55341 60.0235 6.55555 59.6783 6.63376 59.3465C6.63759 59.3301 6.64097 59.3135 6.64388 59.2967L7.98063 51.8478C8.22448 50.8393 8.75195 49.9217 9.50069 49.2035C10.2494 48.4853 11.1882 47.9965 12.2059 47.7949L20.0504 46.2524C20.2477 47.0625 20.706 47.7853 21.3548 48.3091L30.5946 55.8029C30.962 56.1027 31.4204 56.2686 31.8946 56.2732C32.3687 56.2778 32.8303 56.1208 33.2034 55.8281L42.8489 48.3213C43.5157 47.8037 43.9915 47.0792 44.2014 46.2616L52.1675 47.76C53.2614 47.9681 54.2651 48.5069 55.043 49.3036C55.821 50.1003 56.3358 51.1165 56.5179 52.215L57.3941 59.4712C57.3956 59.4831 57.3974 59.495 57.3993 59.507C57.4512 59.8299 57.4323 60.1602 57.3439 60.4751C57.2555 60.79 57.0997 61.0819 56.8874 61.3306H56.8875Z"/>
    </mask>
    <path d="M59.2538 59.2296L58.3771 51.9714C58.3757 51.9593 58.374 51.9473 58.372 51.9352C58.1312 50.4523 57.44 49.0794 56.3921 48.0028C55.3442 46.9263 53.9905 46.1982 52.5146 45.9174L43.5746 44.2357H43.574L41.1528 43.7803C43.4992 43.3242 45.8093 42.6973 48.0644 41.9046C49.0713 41.5494 49.9239 40.8562 50.4771 39.9429C51.0302 39.0297 51.2497 37.9529 51.0981 36.896L49.7031 27.3326H50.4814C50.9803 27.3321 51.4586 27.1336 51.8113 26.7808C52.1641 26.4281 52.3625 25.9498 52.363 25.4509V21.6305C52.3625 21.1316 52.1641 20.6533 51.8113 20.3005C51.4586 19.9478 50.9803 19.7493 50.4814 19.7488H48.9339C48.813 19.4603 48.6599 19.1864 48.4778 18.9321L47.6996 13.5971C47.148 9.81951 45.2551 6.36666 42.367 3.86996C39.4789 1.37326 35.7886 -0.000459377 31.9709 1.15233e-07H31.2656C27.3947 0.00510976 23.6582 1.42045 20.7554 3.98121C17.8525 6.54197 15.9821 10.0727 15.4941 13.9128L14.762 19.7488H13.2313C12.7324 19.7493 12.254 19.9477 11.9012 20.3005C11.5485 20.6533 11.35 21.1316 11.3495 21.6305V25.4509C11.35 25.9498 11.5485 26.4281 11.9012 26.7809C12.254 27.1337 12.7324 27.3321 13.2313 27.3326H13.8108L12.602 36.9683C12.4758 38.0084 12.7065 39.0606 13.2562 39.9526C13.8059 40.8446 14.6421 41.5235 15.628 41.8784C17.9531 42.7005 20.337 43.3458 22.7593 43.8088L20.6965 44.2144L20.6826 44.2171L11.844 45.9552C10.4689 46.2277 9.20118 46.8897 8.19171 47.8623C7.18225 48.835 6.47363 50.0773 6.15026 51.4412C6.14626 51.4577 6.1428 51.4742 6.13988 51.4907L4.80276 58.9422C4.66408 59.548 4.66372 60.1773 4.80173 60.7832C4.93973 61.3892 5.21253 61.9562 5.59986 62.4422C5.98719 62.9282 6.47907 63.3206 7.03895 63.5903C7.59883 63.86 8.21231 64 8.83376 64H55.1663C55.7631 64 56.3528 63.8709 56.895 63.6215C57.4372 63.3721 57.919 63.0083 58.3073 62.5551C58.6957 62.1019 58.9813 61.57 59.1447 60.996C59.308 60.422 59.3453 59.8194 59.2538 59.2296ZM49.2544 21.6266L50.4881 21.6304L50.4814 25.4576H49.2544V21.6266ZM48.0074 28.6975L49.2426 37.1668C49.3322 37.7935 49.2017 38.432 48.8734 38.9734C48.5451 39.5148 48.0392 39.9256 47.442 40.1359C44.8436 41.0493 42.1702 41.7335 39.4525 42.1806V38.5658L40.1306 38.1415C41.1188 37.526 41.9527 36.6922 42.5685 35.7043H42.7215C43.804 35.7032 44.8418 35.2728 45.6073 34.5075C46.3728 33.7421 46.8035 32.7044 46.8049 31.622V29.5257C47.2512 29.3223 47.6582 29.0419 48.0074 28.6975ZM35.4961 38.8295C34.4031 39.5072 33.1425 39.8663 31.8564 39.8663C30.5703 39.8663 29.3097 39.5072 28.2166 38.8295L26.273 37.6135C26.2699 37.6114 26.2664 37.6095 26.2631 37.6074L24.5756 36.5516C23.7472 36.0374 23.0641 35.3197 22.5914 34.4668C22.1188 33.6139 21.8723 32.6542 21.8754 31.6791V18.9925C22.7968 18.8661 23.6787 18.5368 24.4575 18.0284C25.2363 17.52 25.8926 16.8452 26.3791 16.0526C26.9751 16.6417 27.6211 17.1779 28.3099 17.6551L28.4919 17.779C32.7579 20.6704 37.3633 19.9965 41.8369 19.2297V31.6794C41.8378 32.4159 41.6975 33.1457 41.4236 33.8294H35.1376C34.9467 33.2889 34.593 32.8208 34.1252 32.4895C33.6574 32.1582 33.0985 31.98 32.5253 31.9792H30.9331C30.1987 31.9801 29.4946 32.2722 28.9754 32.7916C28.4561 33.3109 28.164 34.015 28.1631 34.7494V34.7844C28.164 35.5188 28.4561 36.2228 28.9754 36.7421C29.4947 37.2614 30.1987 37.5535 30.9331 37.5544H32.5253C33.0985 37.5536 33.6574 37.3754 34.1252 37.0441C34.5929 36.7128 34.9466 36.2448 35.1376 35.7044H40.1916C39.8742 36.0271 39.52 36.3115 39.1364 36.5519L35.4961 38.8295ZM37.5775 39.739V44.0075C37.5771 44.1141 37.5525 44.2192 37.5056 44.3149C37.4587 44.4107 37.3906 44.4945 37.3066 44.5601L32.0116 48.6814L26.9444 44.5719C26.8014 44.4566 26.7098 44.2896 26.6894 44.1071C26.6889 44.1003 26.6889 44.0934 26.6883 44.0866C26.6868 44.0675 26.685 44.0483 26.685 44.0288V40.0831L27.2225 40.4194C28.6142 41.2822 30.2191 41.7393 31.8565 41.7392C33.4939 41.7392 35.0988 41.282 36.4904 40.4191L37.5775 39.739ZM33.4203 34.7492V34.7842C33.42 35.0215 33.3256 35.249 33.1578 35.4168C32.99 35.5846 32.7625 35.679 32.5253 35.6792H30.9331C30.6958 35.679 30.4684 35.5846 30.3006 35.4168C30.1328 35.249 30.0384 35.0215 30.0381 34.7842V34.7492C30.0384 34.5119 30.1328 34.2844 30.3006 34.1166C30.4683 33.9488 30.6958 33.8544 30.9331 33.8541H32.5253C32.7626 33.8544 32.9901 33.9488 33.1578 34.1166C33.3256 34.2844 33.42 34.5119 33.4203 34.7492ZM43.4403 33.7067C43.6208 33.046 43.7121 32.3642 43.7119 31.6793V29.9005H44.9299V31.622C44.9291 32.0812 44.7852 32.5288 44.5182 32.9024C44.2512 33.2761 43.8744 33.5573 43.4403 33.7069V33.7067ZM47.3794 21.3512V25.7301C47.3787 26.3387 47.1367 26.9221 46.7064 27.3524C46.2761 27.7827 45.6927 28.0248 45.0841 28.0255H43.7119V19.0559H45.0841C45.6927 19.0566 46.2761 19.2986 46.7064 19.729C47.1367 20.1593 47.3787 20.7427 47.3794 21.3512ZM17.3544 14.1461C17.7849 10.7591 19.4347 7.64489 21.9952 5.38628C24.5557 3.12767 27.8515 1.87939 31.2658 1.875H31.971C35.3383 1.87452 38.5932 3.08609 41.1406 5.28818C43.688 7.49026 45.3577 10.5357 45.8443 13.8676L46.3568 17.3805C45.9456 17.2482 45.5162 17.1808 45.0843 17.1809H42.8218C42.8171 17.1807 42.8126 17.1811 42.808 17.1809H42.7745L42.7708 17.1811C42.7415 17.1812 42.7123 17.1827 42.6833 17.1856L42.6708 17.187C42.6528 17.189 42.6349 17.1901 42.617 17.1933L41.9753 17.3034C37.5294 18.0693 33.33 18.7926 29.544 16.2269L29.3734 16.1106C28.4299 15.457 27.5808 14.6768 26.8499 13.7919C26.7429 13.6623 26.6031 13.5638 26.4451 13.5068C26.287 13.4498 26.1166 13.4363 25.9515 13.4677C25.7864 13.4992 25.6329 13.5744 25.5069 13.6855C25.3808 13.7966 25.287 13.9396 25.2351 14.0994C24.9432 15.0035 24.3694 15.7904 23.5979 16.3449C22.8264 16.8995 21.8977 17.1924 20.9476 17.181L20.9435 17.1811L20.938 17.1809H18.6284C18.0421 17.181 17.4625 17.3057 16.928 17.5466L17.3544 14.1461ZM16.3331 21.3511C16.3339 20.7426 16.5759 20.1593 17.0062 19.729C17.4364 19.2988 18.0198 19.0567 18.6283 19.056H20.0004V28.0255H18.6283C18.0197 28.0248 17.4363 27.7827 17.006 27.3524C16.5757 26.9221 16.3337 26.3387 16.333 25.7301L16.3331 21.3511ZM13.2244 25.4509L13.2311 21.6238H14.458V25.4548L13.2244 25.4509ZM16.2534 40.1109C15.6695 39.9004 15.1744 39.498 14.849 38.9695C14.5236 38.441 14.3873 37.8177 14.4623 37.2016L15.5493 28.5364C15.9389 28.966 16.4142 29.3092 16.9444 29.5442C17.4747 29.7791 18.0483 29.9005 18.6283 29.9005H20.0004V31.6793C19.9963 32.9724 20.3232 34.2452 20.95 35.3763C21.5768 36.5074 22.4827 37.4593 23.5814 38.1414L24.8101 38.9101V42.26C21.8969 41.8131 19.0321 41.0936 16.2534 40.1109ZM25.1203 45.2554C25.2818 45.5527 25.5003 45.8153 25.7633 46.0283L30.947 50.232C31.2423 50.4736 31.6112 50.6074 31.9928 50.6111C32.3744 50.6148 32.7458 50.4882 33.0458 50.2524L38.4579 46.0401C38.7173 45.8376 38.9353 45.587 39.1001 45.3021L42.347 45.9128C42.2263 46.2799 41.9999 46.6032 41.6963 46.8423L32.0509 54.3491C32.0114 54.38 31.9626 54.3965 31.9125 54.396C31.8624 54.3955 31.814 54.3779 31.7751 54.3462L22.5351 46.8522C22.2289 46.604 22.0059 46.268 21.8961 45.8894L25.1203 45.2554ZM56.8875 61.3306C56.6753 61.5799 56.4115 61.78 56.1143 61.9172C55.8171 62.0543 55.4936 62.1252 55.1663 62.125H8.83376C8.49286 62.125 8.15637 62.048 7.84948 61.8995C7.5426 61.7511 7.27326 61.5352 7.06164 61.2679C6.85003 61.0007 6.70161 60.689 6.62751 60.3562C6.55341 60.0235 6.55555 59.6783 6.63376 59.3465C6.63759 59.3301 6.64097 59.3135 6.64388 59.2967L7.98063 51.8478C8.22448 50.8393 8.75195 49.9217 9.50069 49.2035C10.2494 48.4853 11.1882 47.9965 12.2059 47.7949L20.0504 46.2524C20.2477 47.0625 20.706 47.7853 21.3548 48.3091L30.5946 55.8029C30.962 56.1027 31.4204 56.2686 31.8946 56.2732C32.3687 56.2778 32.8303 56.1208 33.2034 55.8281L42.8489 48.3213C43.5157 47.8037 43.9915 47.0792 44.2014 46.2616L52.1675 47.76C53.2614 47.9681 54.2651 48.5069 55.043 49.3036C55.821 50.1003 56.3358 51.1165 56.5179 52.215L57.3941 59.4712C57.3956 59.4831 57.3974 59.495 57.3993 59.507C57.4512 59.8299 57.4323 60.1602 57.3439 60.4751C57.2555 60.79 57.0997 61.0819 56.8874 61.3306H56.8875Z" fill="white"/>
    <path d="M59.2538 59.2296L58.3771 51.9714C58.3757 51.9593 58.374 51.9473 58.372 51.9352C58.1312 50.4523 57.44 49.0794 56.3921 48.0028C55.3442 46.9263 53.9905 46.1982 52.5146 45.9174L43.5746 44.2357H43.574L41.1528 43.7803C43.4992 43.3242 45.8093 42.6973 48.0644 41.9046C49.0713 41.5494 49.9239 40.8562 50.4771 39.9429C51.0302 39.0297 51.2497 37.9529 51.0981 36.896L49.7031 27.3326H50.4814C50.9803 27.3321 51.4586 27.1336 51.8113 26.7808C52.1641 26.4281 52.3625 25.9498 52.363 25.4509V21.6305C52.3625 21.1316 52.1641 20.6533 51.8113 20.3005C51.4586 19.9478 50.9803 19.7493 50.4814 19.7488H48.9339C48.813 19.4603 48.6599 19.1864 48.4778 18.9321L47.6996 13.5971C47.148 9.81951 45.2551 6.36666 42.367 3.86996C39.4789 1.37326 35.7886 -0.000459377 31.9709 1.15233e-07H31.2656C27.3947 0.00510976 23.6582 1.42045 20.7554 3.98121C17.8525 6.54197 15.9821 10.0727 15.4941 13.9128L14.762 19.7488H13.2313C12.7324 19.7493 12.254 19.9477 11.9012 20.3005C11.5485 20.6533 11.35 21.1316 11.3495 21.6305V25.4509C11.35 25.9498 11.5485 26.4281 11.9012 26.7809C12.254 27.1337 12.7324 27.3321 13.2313 27.3326H13.8108L12.602 36.9683C12.4758 38.0084 12.7065 39.0606 13.2562 39.9526C13.8059 40.8446 14.6421 41.5235 15.628 41.8784C17.9531 42.7005 20.337 43.3458 22.7593 43.8088L20.6965 44.2144L20.6826 44.2171L11.844 45.9552C10.4689 46.2277 9.20118 46.8897 8.19171 47.8623C7.18225 48.835 6.47363 50.0773 6.15026 51.4412C6.14626 51.4577 6.1428 51.4742 6.13988 51.4907L4.80276 58.9422C4.66408 59.548 4.66372 60.1773 4.80173 60.7832C4.93973 61.3892 5.21253 61.9562 5.59986 62.4422C5.98719 62.9282 6.47907 63.3206 7.03895 63.5903C7.59883 63.86 8.21231 64 8.83376 64H55.1663C55.7631 64 56.3528 63.8709 56.895 63.6215C57.4372 63.3721 57.919 63.0083 58.3073 62.5551C58.6957 62.1019 58.9813 61.57 59.1447 60.996C59.308 60.422 59.3453 59.8194 59.2538 59.2296ZM49.2544 21.6266L50.4881 21.6304L50.4814 25.4576H49.2544V21.6266ZM48.0074 28.6975L49.2426 37.1668C49.3322 37.7935 49.2017 38.432 48.8734 38.9734C48.5451 39.5148 48.0392 39.9256 47.442 40.1359C44.8436 41.0493 42.1702 41.7335 39.4525 42.1806V38.5658L40.1306 38.1415C41.1188 37.526 41.9527 36.6922 42.5685 35.7043H42.7215C43.804 35.7032 44.8418 35.2728 45.6073 34.5075C46.3728 33.7421 46.8035 32.7044 46.8049 31.622V29.5257C47.2512 29.3223 47.6582 29.0419 48.0074 28.6975ZM35.4961 38.8295C34.4031 39.5072 33.1425 39.8663 31.8564 39.8663C30.5703 39.8663 29.3097 39.5072 28.2166 38.8295L26.273 37.6135C26.2699 37.6114 26.2664 37.6095 26.2631 37.6074L24.5756 36.5516C23.7472 36.0374 23.0641 35.3197 22.5914 34.4668C22.1188 33.6139 21.8723 32.6542 21.8754 31.6791V18.9925C22.7968 18.8661 23.6787 18.5368 24.4575 18.0284C25.2363 17.52 25.8926 16.8452 26.3791 16.0526C26.9751 16.6417 27.6211 17.1779 28.3099 17.6551L28.4919 17.779C32.7579 20.6704 37.3633 19.9965 41.8369 19.2297V31.6794C41.8378 32.4159 41.6975 33.1457 41.4236 33.8294H35.1376C34.9467 33.2889 34.593 32.8208 34.1252 32.4895C33.6574 32.1582 33.0985 31.98 32.5253 31.9792H30.9331C30.1987 31.9801 29.4946 32.2722 28.9754 32.7916C28.4561 33.3109 28.164 34.015 28.1631 34.7494V34.7844C28.164 35.5188 28.4561 36.2228 28.9754 36.7421C29.4947 37.2614 30.1987 37.5535 30.9331 37.5544H32.5253C33.0985 37.5536 33.6574 37.3754 34.1252 37.0441C34.5929 36.7128 34.9466 36.2448 35.1376 35.7044H40.1916C39.8742 36.0271 39.52 36.3115 39.1364 36.5519L35.4961 38.8295ZM37.5775 39.739V44.0075C37.5771 44.1141 37.5525 44.2192 37.5056 44.3149C37.4587 44.4107 37.3906 44.4945 37.3066 44.5601L32.0116 48.6814L26.9444 44.5719C26.8014 44.4566 26.7098 44.2896 26.6894 44.1071C26.6889 44.1003 26.6889 44.0934 26.6883 44.0866C26.6868 44.0675 26.685 44.0483 26.685 44.0288V40.0831L27.2225 40.4194C28.6142 41.2822 30.2191 41.7393 31.8565 41.7392C33.4939 41.7392 35.0988 41.282 36.4904 40.4191L37.5775 39.739ZM33.4203 34.7492V34.7842C33.42 35.0215 33.3256 35.249 33.1578 35.4168C32.99 35.5846 32.7625 35.679 32.5253 35.6792H30.9331C30.6958 35.679 30.4684 35.5846 30.3006 35.4168C30.1328 35.249 30.0384 35.0215 30.0381 34.7842V34.7492C30.0384 34.5119 30.1328 34.2844 30.3006 34.1166C30.4683 33.9488 30.6958 33.8544 30.9331 33.8541H32.5253C32.7626 33.8544 32.9901 33.9488 33.1578 34.1166C33.3256 34.2844 33.42 34.5119 33.4203 34.7492ZM43.4403 33.7067C43.6208 33.046 43.7121 32.3642 43.7119 31.6793V29.9005H44.9299V31.622C44.9291 32.0812 44.7852 32.5288 44.5182 32.9024C44.2512 33.2761 43.8744 33.5573 43.4403 33.7069V33.7067ZM47.3794 21.3512V25.7301C47.3787 26.3387 47.1367 26.9221 46.7064 27.3524C46.2761 27.7827 45.6927 28.0248 45.0841 28.0255H43.7119V19.0559H45.0841C45.6927 19.0566 46.2761 19.2986 46.7064 19.729C47.1367 20.1593 47.3787 20.7427 47.3794 21.3512ZM17.3544 14.1461C17.7849 10.7591 19.4347 7.64489 21.9952 5.38628C24.5557 3.12767 27.8515 1.87939 31.2658 1.875H31.971C35.3383 1.87452 38.5932 3.08609 41.1406 5.28818C43.688 7.49026 45.3577 10.5357 45.8443 13.8676L46.3568 17.3805C45.9456 17.2482 45.5162 17.1808 45.0843 17.1809H42.8218C42.8171 17.1807 42.8126 17.1811 42.808 17.1809H42.7745L42.7708 17.1811C42.7415 17.1812 42.7123 17.1827 42.6833 17.1856L42.6708 17.187C42.6528 17.189 42.6349 17.1901 42.617 17.1933L41.9753 17.3034C37.5294 18.0693 33.33 18.7926 29.544 16.2269L29.3734 16.1106C28.4299 15.457 27.5808 14.6768 26.8499 13.7919C26.7429 13.6623 26.6031 13.5638 26.4451 13.5068C26.287 13.4498 26.1166 13.4363 25.9515 13.4677C25.7864 13.4992 25.6329 13.5744 25.5069 13.6855C25.3808 13.7966 25.287 13.9396 25.2351 14.0994C24.9432 15.0035 24.3694 15.7904 23.5979 16.3449C22.8264 16.8995 21.8977 17.1924 20.9476 17.181L20.9435 17.1811L20.938 17.1809H18.6284C18.0421 17.181 17.4625 17.3057 16.928 17.5466L17.3544 14.1461ZM16.3331 21.3511C16.3339 20.7426 16.5759 20.1593 17.0062 19.729C17.4364 19.2988 18.0198 19.0567 18.6283 19.056H20.0004V28.0255H18.6283C18.0197 28.0248 17.4363 27.7827 17.006 27.3524C16.5757 26.9221 16.3337 26.3387 16.333 25.7301L16.3331 21.3511ZM13.2244 25.4509L13.2311 21.6238H14.458V25.4548L13.2244 25.4509ZM16.2534 40.1109C15.6695 39.9004 15.1744 39.498 14.849 38.9695C14.5236 38.441 14.3873 37.8177 14.4623 37.2016L15.5493 28.5364C15.9389 28.966 16.4142 29.3092 16.9444 29.5442C17.4747 29.7791 18.0483 29.9005 18.6283 29.9005H20.0004V31.6793C19.9963 32.9724 20.3232 34.2452 20.95 35.3763C21.5768 36.5074 22.4827 37.4593 23.5814 38.1414L24.8101 38.9101V42.26C21.8969 41.8131 19.0321 41.0936 16.2534 40.1109ZM25.1203 45.2554C25.2818 45.5527 25.5003 45.8153 25.7633 46.0283L30.947 50.232C31.2423 50.4736 31.6112 50.6074 31.9928 50.6111C32.3744 50.6148 32.7458 50.4882 33.0458 50.2524L38.4579 46.0401C38.7173 45.8376 38.9353 45.587 39.1001 45.3021L42.347 45.9128C42.2263 46.2799 41.9999 46.6032 41.6963 46.8423L32.0509 54.3491C32.0114 54.38 31.9626 54.3965 31.9125 54.396C31.8624 54.3955 31.814 54.3779 31.7751 54.3462L22.5351 46.8522C22.2289 46.604 22.0059 46.268 21.8961 45.8894L25.1203 45.2554ZM56.8875 61.3306C56.6753 61.5799 56.4115 61.78 56.1143 61.9172C55.8171 62.0543 55.4936 62.1252 55.1663 62.125H8.83376C8.49286 62.125 8.15637 62.048 7.84948 61.8995C7.5426 61.7511 7.27326 61.5352 7.06164 61.2679C6.85003 61.0007 6.70161 60.689 6.62751 60.3562C6.55341 60.0235 6.55555 59.6783 6.63376 59.3465C6.63759 59.3301 6.64097 59.3135 6.64388 59.2967L7.98063 51.8478C8.22448 50.8393 8.75195 49.9217 9.50069 49.2035C10.2494 48.4853 11.1882 47.9965 12.2059 47.7949L20.0504 46.2524C20.2477 47.0625 20.706 47.7853 21.3548 48.3091L30.5946 55.8029C30.962 56.1027 31.4204 56.2686 31.8946 56.2732C32.3687 56.2778 32.8303 56.1208 33.2034 55.8281L42.8489 48.3213C43.5157 47.8037 43.9915 47.0792 44.2014 46.2616L52.1675 47.76C53.2614 47.9681 54.2651 48.5069 55.043 49.3036C55.821 50.1003 56.3358 51.1165 56.5179 52.215L57.3941 59.4712C57.3956 59.4831 57.3974 59.495 57.3993 59.507C57.4512 59.8299 57.4323 60.1602 57.3439 60.4751C57.2555 60.79 57.0997 61.0819 56.8874 61.3306H56.8875Z" stroke="white" mask="url(#path-1-outside-1_1_286)"/>
  </g>
  <defs>
    <clipPath id="clip0_1_286">
      <rect width="64" height="64" fill="white"/>
    </clipPath>
  </defs>
</svg>