<svg xmlns="http://www.w3.org/2000/svg" width="167" height="122" viewBox="0 0 167 122" fill="none">
  <g opacity="0.4">
    <path fill-rule="evenodd" clip-rule="evenodd" d="M13.8176 92.3933C11.8864 87.4503 11.0565 82.1456 11.3859 76.849C11.7153 71.5525 13.1961 66.3914 15.7249 61.7259C23.3039 45.4636 40.0681 29.352 62.3534 18.7615C84.6387 8.17092 107.526 5.66131 124.491 10.3292C129.596 11.4381 134.39 13.6715 138.523 16.8667C142.656 20.0619 146.024 24.1386 148.383 28.7999C154.456 42.4019 149.487 60.1699 135.132 76.4322C135.008 76.5702 134.94 76.7489 134.94 76.9341C134.94 77.1193 135.008 77.298 135.132 77.436L155.209 100.625L117.213 92.594C117.135 92.558 117.049 92.5393 116.962 92.5393C116.876 92.5393 116.79 92.558 116.711 92.594C111.363 96.2766 105.723 99.5164 99.8469 102.281C77.5114 112.872 54.674 115.431 37.7091 110.764C32.6134 109.666 27.8259 107.448 23.6936 104.27C19.5613 101.093 16.1878 97.0358 13.8176 92.3933V92.3933Z" fill="#1A96F0"/>
    <path d="M5.81249 62.3744L5.82418 62.3529L5.83455 62.3307C14.5068 43.7473 33.7435 25.2483 59.4028 13.0705C85.0585 0.894428 111.341 -1.95558 130.742 3.37555L130.764 3.38139L130.785 3.38606C136.575 4.64206 142.011 7.17161 146.698 10.7905C151.38 14.4054 155.197 19.0164 157.872 24.2882C164.7 39.5874 159.169 59.7739 142.664 78.4472C142.39 78.7544 142.239 79.1515 142.239 79.5631C142.239 79.9737 142.389 80.3699 142.662 80.6769C142.664 80.6787 142.665 80.6805 142.667 80.6823L164.314 105.652L122.773 96.8835C122.604 96.8202 122.425 96.7878 122.245 96.7878C122.029 96.7878 121.815 96.8343 121.618 96.9244L121.554 96.9536L121.496 96.9933C115.344 101.224 108.856 104.946 102.097 108.122L102.094 108.123C76.3785 120.3 50.1541 123.207 30.7543 117.876L30.7324 117.87L30.7102 117.865C24.931 116.622 19.5014 114.11 14.815 110.511C10.1393 106.92 6.32016 102.338 3.63316 97.0952C1.45185 91.5036 0.515103 85.5047 0.888116 79.515C1.26196 73.5119 2.94248 67.6624 5.81249 62.3744Z" stroke="#1A96F0" stroke-width="1.6165"/>
    <path d="M42.2271 70.3089C42.6521 70.1775 43.107 70.1775 43.532 70.3089C43.9016 70.5248 44.1853 70.8617 44.3351 71.2626C44.4652 71.6536 44.4652 72.0762 44.3351 72.4672C44.2956 72.6814 44.2129 72.8852 44.0921 73.0664C43.9713 73.2476 43.8149 73.4024 43.6324 73.5213L45.8911 78.5405C46.017 79.0005 46.017 79.4859 45.8911 79.9459C45.8632 80.3774 45.6857 80.7856 45.3891 81.1003C45.1369 81.4053 44.778 81.6027 44.3853 81.6524C43.948 81.8137 43.4674 81.8137 43.0301 81.6524C42.81 81.5084 42.622 81.3204 42.478 81.1003C42.3425 80.9108 42.2249 80.7092 42.1266 80.498L39.9182 75.4788L33.3932 78.4401L35.6017 83.2083C35.6301 83.4249 35.6301 83.6443 35.6017 83.8608C35.6494 84.0757 35.6494 84.2984 35.6017 84.5133C35.6014 84.7493 35.5522 84.9826 35.4572 85.1986C35.3621 85.4146 35.2234 85.6085 35.0496 85.7681C34.9161 85.9177 34.7542 86.0392 34.5732 86.1254C34.3922 86.2116 34.1958 86.2607 33.9955 86.27C33.5591 86.2721 33.1287 86.1688 32.7407 85.9689C32.3119 85.7136 31.9773 85.3261 31.7871 84.8647L25.1617 70.4595C25.0637 70.2294 25.0132 69.9819 25.0132 69.7317C25.0132 69.4816 25.0637 69.2341 25.1617 69.004C25.267 68.5657 25.493 68.1657 25.8142 67.8495C25.9646 67.6868 26.147 67.557 26.35 67.4682C26.553 67.3794 26.7722 67.3336 26.9937 67.3336C27.2153 67.3336 27.4345 67.3794 27.6374 67.4682C27.8404 67.557 28.0229 67.6868 28.1732 67.8495L28.4744 68.2009V68.6024L31.3855 74.9266L37.8603 71.9151L35.0997 65.9423C34.9997 65.5639 34.9997 65.1661 35.0997 64.7878C35.0898 64.328 35.2507 63.8809 35.5515 63.533C35.8229 63.2071 36.1928 62.9781 36.6055 62.8805C36.9976 62.7572 37.418 62.7572 37.8101 62.8805C38.2455 63.0797 38.5872 63.4393 38.7638 63.8844L42.2271 70.3089ZM63.8598 70.9113C63.9865 71.3028 63.9865 71.7243 63.8598 72.1159C63.7851 72.4744 63.6112 72.8049 63.3579 73.0695C63.1417 73.3236 62.8364 73.4853 62.5047 73.5213C62.1165 73.6677 61.6882 73.6677 61.3 73.5213C60.9235 73.3527 60.6081 73.0723 60.3966 72.7182C60.2258 72.3664 60.0243 72.0305 59.7943 71.7144C59.0916 70.7607 58.3889 69.8572 57.5356 68.9036L54.1226 70.5097L50.7095 72.1159V73.8224C50.7095 74.4247 50.7095 74.8764 51.0608 75.4286C51.0372 75.8465 51.0372 76.2654 51.0608 76.6834C51.1863 77.1093 51.1863 77.5624 51.0608 77.9884C50.9433 78.4316 50.6777 78.8213 50.308 79.0926C49.9681 79.2195 49.5938 79.2195 49.2539 79.0926C48.8838 79.0384 48.5361 78.882 48.2501 78.6408C47.8804 78.3696 47.6147 77.9799 47.4972 77.5366C47.2937 76.9317 47.1426 76.3103 47.0455 75.6795L46.7443 73.8224C46.1365 70.256 45.8009 66.6485 45.7405 63.0311C45.6899 62.7321 45.6899 62.4267 45.7405 62.1276V60.2204C45.6887 59.8877 45.6887 59.5491 45.7405 59.2165C45.787 58.884 45.8888 58.5617 46.0416 58.2629C46.2377 57.9697 46.5176 57.7423 46.8447 57.6103C47.2793 57.4345 47.7653 57.4345 48.1999 57.6103C50.0156 58.2886 51.7103 59.2546 53.2191 60.4713C54.776 61.6612 56.2672 62.9346 57.6862 64.2859L58.7904 63.784C59.1953 63.6341 59.6404 63.6341 60.0452 63.784C60.3877 63.9127 60.6846 64.1397 60.8985 64.4365C61.058 64.7146 61.1604 65.0217 61.1997 65.3399C61.2725 65.6536 61.2725 65.9799 61.1997 66.2936C61.0429 66.6054 60.8202 66.8794 60.5471 67.0966L61.9526 68.8534C62.4043 69.4557 62.8058 70.1082 63.2074 70.7607L63.8598 70.9113ZM54.6747 65.892C53.9692 65.1868 53.2144 64.5327 52.416 63.9346C51.6587 63.2887 50.8533 62.7015 50.0068 62.1778V68.0001L52.2655 66.8959L54.6747 65.892ZM75.5546 63.1817C76.026 63.2024 76.4877 63.3221 76.9098 63.533C77.2342 63.7209 77.4961 64.0002 77.6627 64.3361C77.789 64.6933 77.789 65.0831 77.6627 65.4403C77.522 65.8867 77.2616 66.286 76.9098 66.5947C76.6879 66.7893 76.4329 66.9423 76.1569 67.0465L74.8017 67.699L72.5431 68.753L69.1802 70.3089L68.1764 70.8109C68.0018 70.8854 67.814 70.9239 67.6242 70.9239C67.4345 70.9239 67.2467 70.8854 67.0721 70.8109C66.7286 70.7108 66.4283 70.4988 66.2189 70.2086C65.9229 69.8733 65.67 69.5023 65.466 69.1043C65.2248 68.7067 65.023 68.2865 64.8637 67.8495L64.3618 66.7955L63.5085 64.8882L62.5047 62.6296C62.2035 61.8767 61.8521 61.174 61.5008 60.4211L60.6475 58.5138C60.1958 57.51 59.7943 56.7069 59.5433 56.1046C59.3469 55.6299 59.1793 55.1438 59.0414 54.649C58.969 54.3522 58.969 54.0424 59.0414 53.7456C59.1555 53.4898 59.3078 53.2528 59.4931 53.0429C59.6761 52.8246 59.9212 52.667 60.1958 52.5911H61.0491C61.3127 52.5253 61.5885 52.5253 61.8521 52.5911C61.983 52.6443 62.1005 52.726 62.196 52.8302C62.2915 52.9343 62.3626 53.0584 62.4043 53.1935C63.4583 55.4019 64.5123 57.6104 65.466 59.8188C66.4196 62.0273 67.4235 64.1855 68.4273 66.394L71.8906 64.7377L75.404 63.0311L75.5546 63.1817ZM89.2069 56.9579C89.6604 56.9453 90.1096 57.049 90.5118 57.259C90.8453 57.4374 91.1101 57.7216 91.2645 58.0668C91.4189 58.412 91.4544 58.7988 91.3651 59.1663C91.2182 59.6224 90.9386 60.0243 90.562 60.3207C90.3516 60.5055 90.1148 60.6577 89.8594 60.7725L88.454 61.425L86.1953 62.479L82.8325 64.0349C82.5136 64.2321 82.1777 64.4001 81.8286 64.5369C81.6541 64.6114 81.4663 64.6498 81.2765 64.6498C81.0867 64.6498 80.8989 64.6114 80.7244 64.5369C80.5494 64.4979 80.3839 64.4246 80.2374 64.3212C80.0909 64.2178 79.9665 64.0864 79.8711 63.9346C79.5752 63.5993 79.3223 63.2283 79.1182 62.8303L78.5159 61.5755C78.3412 61.235 78.1903 60.8829 78.0642 60.5215C77.7631 59.9694 77.5121 59.3169 77.1608 58.6142L76.4079 56.4057C76.1067 55.6529 75.7554 54.9502 75.404 54.1973L74.5507 52.29C74.099 51.2861 73.7477 50.5332 73.4967 49.8808C73.266 49.4146 73.0811 48.9271 72.9446 48.4252C72.8413 48.1329 72.8413 47.814 72.9446 47.5218C73.0202 47.2587 73.1579 47.0177 73.3461 46.819C73.5423 46.6274 73.7842 46.4892 74.0488 46.4175C74.3309 46.3657 74.62 46.3657 74.9021 46.4175C75.1648 46.3448 75.4424 46.3448 75.7052 46.4175C75.9513 46.5511 76.1456 46.7631 76.2573 47.0198C77.3113 49.2283 78.3654 51.4367 79.319 53.6452C80.2727 55.8536 81.2765 58.0621 82.2803 60.2204L85.7436 58.564L89.257 56.8575L89.2069 56.9579ZM105.469 44.1087C105.569 45.3112 105.569 46.52 105.469 47.7225C105.465 48.9149 105.279 50.0998 104.917 51.236C104.585 52.3357 104.039 53.359 103.311 54.2475C102.551 55.205 101.569 55.963 100.45 56.4559L98.4924 57.1084C97.9917 57.1578 97.4873 57.1578 96.9866 57.1084C96.1767 57.2883 95.3372 57.2883 94.5272 57.1084C93.7462 56.86 93.0031 56.5054 92.3188 56.0544C91.6615 55.5643 91.071 54.9906 90.562 54.3478C90.0435 53.7442 89.5893 53.0882 89.2069 52.3904C88.5239 51.2085 88.0485 49.9183 87.8015 48.5758C87.5521 47.2321 87.5521 45.8539 87.8015 44.5102C87.9495 43.1562 88.3586 41.8438 89.0061 40.6454C89.6233 39.4324 90.5387 38.3961 91.6663 37.6339C92.2852 37.2235 92.9404 36.8706 93.6238 36.5799C94.3043 36.3304 95.0119 36.1619 95.7318 36.0779H97.4885L99.1951 36.3791C99.9444 36.6281 100.654 36.9831 101.303 37.4331C101.953 37.8748 102.529 38.417 103.01 39.0393C103.595 39.8053 104.099 40.6294 104.515 41.4987C104.867 42.3018 105.168 43.2052 105.469 44.1087V44.1087ZM100.45 52.1394C100.883 51.6726 101.224 51.1275 101.454 50.5333C101.697 49.9372 101.865 49.3135 101.956 48.6762C102.032 48.0427 102.032 47.4023 101.956 46.7689V44.8615C101.733 44.0933 101.465 43.3391 101.153 42.6029C100.829 41.8588 100.329 41.2044 99.697 40.6956C99.1728 40.2294 98.5302 39.9168 97.8399 39.7922C97.1451 39.6429 96.4266 39.6429 95.7318 39.7922C95.0307 39.8914 94.3613 40.1488 93.7743 40.545C93.1847 40.9253 92.7149 41.4648 92.4192 42.101C91.9916 42.967 91.7197 43.9014 91.6161 44.8615C91.4671 45.8262 91.4671 46.808 91.6161 47.7727C91.7574 48.5838 91.9932 49.3755 92.3188 50.1317C92.6507 50.9016 93.1278 51.6003 93.7241 52.1896C94.1826 52.6094 94.7086 52.9488 95.2801 53.1935C95.8574 53.422 96.4673 53.5575 97.087 53.595C97.7068 53.6003 98.3213 53.4808 98.894 53.2437C99.4681 52.9858 99.9812 52.6095 100.4 52.1394H100.45ZM113.249 47.2708C113.394 47.7108 113.394 48.1859 113.249 48.6259C113.195 49.0267 113.04 49.4069 112.797 49.7302C112.568 50.0565 112.256 50.3163 111.894 50.4831C111.53 50.6434 111.137 50.7288 110.739 50.734C110.337 50.7783 109.932 50.6902 109.585 50.4831C109.184 50.2603 108.854 49.9299 108.631 49.5294C108.469 49.1096 108.469 48.6443 108.631 48.2244C108.674 47.8057 108.83 47.4064 109.083 47.07C109.355 46.7656 109.677 46.5108 110.037 46.3171C110.409 46.1231 110.822 46.0199 111.241 46.016C111.62 45.9182 112.017 45.9182 112.396 46.016C112.614 46.1578 112.802 46.3419 112.949 46.5573C113.095 46.7728 113.197 47.0154 113.249 47.2708V47.2708ZM119.623 44.3596C119.765 44.7831 119.765 45.2412 119.623 45.6646C119.588 46.07 119.431 46.4551 119.172 46.7689C118.942 47.0952 118.63 47.355 118.268 47.5218C117.916 47.7215 117.518 47.8254 117.114 47.8229C116.714 47.8408 116.316 47.7543 115.959 47.5719C115.564 47.3584 115.248 47.0243 115.056 46.6183C114.916 46.4247 114.817 46.2047 114.766 45.9717C114.714 45.7387 114.71 45.4976 114.755 45.2631C114.798 44.8599 114.955 44.4772 115.206 44.1589C115.464 43.8402 115.79 43.583 116.16 43.406C116.538 43.2205 116.946 43.1016 117.365 43.0546C117.769 43.0521 118.167 43.156 118.519 43.3558C118.764 43.4348 118.989 43.5653 119.18 43.7384C119.37 43.9115 119.521 44.1233 119.623 44.3596V44.3596ZM123.839 43.5064C123.717 43.08 123.717 42.6277 123.839 42.2014C123.884 41.8136 124.041 41.4473 124.291 41.1473C124.53 40.8761 124.82 40.6544 125.144 40.4949C125.491 40.4136 125.852 40.4136 126.198 40.4949C126.555 40.5357 126.898 40.6558 127.202 40.8462C127.583 41.0625 127.883 41.3974 128.056 41.7998C128.201 42.0788 128.277 42.3887 128.277 42.7033C128.277 43.0178 128.201 43.3277 128.056 43.6067C127.843 44.127 127.451 44.5542 126.951 44.8114C126.413 44.9876 125.833 44.9876 125.295 44.8114C124.975 44.7076 124.68 44.5379 124.429 44.3131C124.178 44.0884 123.977 43.8135 123.839 43.5064V43.5064ZM117.013 28.0472C116.904 27.5851 116.904 27.1039 117.013 26.6418C117.149 26.2859 117.42 25.9976 117.766 25.8388C117.931 25.7623 118.111 25.7227 118.293 25.7227C118.475 25.7227 118.655 25.7623 118.82 25.8388C119.276 25.9351 119.695 26.1618 120.025 26.4912C120.527 27.4282 120.978 28.3316 121.38 29.2016C121.832 30.0549 122.233 30.858 122.585 31.661C122.978 32.4281 123.329 33.2156 123.639 34.0201L124.693 36.4293C124.816 36.6701 124.88 36.9367 124.88 37.2073C124.88 37.4778 124.816 37.7445 124.693 37.9852C124.612 38.2038 124.485 38.4023 124.321 38.567C124.156 38.7317 123.958 38.8586 123.739 38.9389C123.304 39.1147 122.818 39.1147 122.384 38.9389C122.13 38.8775 121.896 38.7534 121.704 38.578C121.511 38.4026 121.365 38.1815 121.28 37.935L116.813 28.2982L117.013 28.0472ZM131.619 40.0431C131.496 39.6168 131.496 39.1645 131.619 38.7381C131.664 38.3503 131.821 37.984 132.071 37.6841C132.307 37.4098 132.598 37.1876 132.924 37.0316C133.27 36.9401 133.633 36.9401 133.978 37.0316C134.378 37.0552 134.764 37.1897 135.092 37.4202C135.42 37.6507 135.678 37.968 135.835 38.3366C135.98 38.6156 136.056 38.9255 136.056 39.24C136.056 39.5546 135.98 39.8645 135.835 40.1435C135.644 40.5478 135.342 40.8895 134.965 41.1288C134.587 41.3682 134.149 41.4952 133.702 41.4952C133.255 41.4952 132.817 41.3682 132.439 41.1288C132.062 40.8895 131.76 40.5478 131.569 40.1435L131.619 40.0431ZM124.843 24.5338C124.714 24.0913 124.714 23.621 124.843 23.1785C124.999 22.835 125.263 22.5527 125.596 22.3755C125.77 22.298 125.958 22.2579 126.148 22.2579C126.339 22.2579 126.527 22.298 126.7 22.3755C127.157 22.4718 127.575 22.6985 127.905 23.028C128.373 23.9984 128.825 24.9018 129.26 25.7384C129.662 26.5414 130.063 27.3947 130.415 28.1978C130.766 29.0008 131.167 29.7537 131.519 30.5568L132.523 32.966C132.635 33.21 132.693 33.4754 132.693 33.744C132.693 34.0126 132.635 34.2781 132.523 34.522C132.308 34.9463 131.954 35.2832 131.519 35.4756C131.084 35.6515 130.598 35.6515 130.164 35.4756C129.912 35.3943 129.682 35.2573 129.491 35.0748C129.3 34.8923 129.152 34.6691 129.059 34.4216L124.642 24.8349L124.843 24.5338Z" fill="white"/>
  </g>
</svg>