<svg width="498" height="354" viewBox="0 0 498 354" fill="none" xmlns="http://www.w3.org/2000/svg">
<g opacity="0.2">
<path d="M0.783351 254.466C-0.455903 240.16 -4.79003 200.933 36.8095 190.474C59.3307 184.812 88.0326 186.221 102.761 206.288C117.49 226.355 124.019 246.016 106.812 261.611C92.0567 274.983 74.7065 285.178 44.5623 288.531C21.4818 291.099 2.63421 275.832 0.783351 254.466Z" fill="#F5F7F8"/>
<path d="M155.056 386.286L193.281 356.251C308.307 278.735 384.259 228.427 513.766 191.157C591.262 168.854 568.998 257.82 551.315 273.271C533.631 288.721 508.832 303.178 482.138 323.061C390.789 391.103 331.196 422.989 225.407 470.012C186.938 487.112 163.963 480.532 142.248 469.794C113.294 455.476 120.653 413.318 155.056 386.286Z" fill="#F5F7F8"/>
<path d="M186.122 106.696L224.347 76.6612C339.372 -0.85518 415.325 -51.1627 544.831 -88.4332C622.328 -110.736 600.064 -21.7697 582.38 -6.31919C564.697 9.13134 539.898 23.5878 513.204 43.4708C421.855 111.513 362.262 143.399 256.472 190.422C218.003 207.522 195.029 200.942 173.313 190.204C144.36 175.886 151.719 133.728 186.122 106.696Z" fill="#F5F7F8"/>
</g>
</svg>
