<svg width="474" height="354" viewBox="0 0 474 354" fill="none" xmlns="http://www.w3.org/2000/svg">
<g opacity="0.2">
<path d="M387.806 194.057C356.159 188.633 363.74 142.557 393.339 120.83C409.392 109.047 416.284 117.174 442.194 110.659C464.715 104.996 476.847 133.638 473.383 145.073C468.677 160.614 469.78 180.865 453.061 184.692C428.615 190.289 427.365 200.837 387.806 194.057Z" fill="#F5F7F8"/>
<path d="M-98.9441 386.286L-60.7185 356.251C54.3066 278.735 130.259 228.427 259.766 191.157C337.262 168.854 314.998 257.82 297.315 273.271C279.631 288.721 254.832 303.178 228.138 323.061C136.789 391.103 77.1965 422.989 -28.5933 470.012C-67.0623 487.112 -90.0369 480.532 -111.752 469.794C-140.706 455.476 -133.347 413.318 -98.9441 386.286Z" fill="#F5F7F8"/>
<path d="M-67.8784 106.696L-29.6529 76.6612C85.3723 -0.85518 161.325 -51.1627 290.831 -88.4332C368.328 -110.736 346.064 -21.7697 328.38 -6.31919C310.697 9.13134 285.898 23.5878 259.204 43.4708C167.855 111.513 108.262 143.399 2.47239 190.422C-35.9966 207.522 -58.9712 200.942 -80.6865 190.204C-109.64 175.886 -102.281 133.728 -67.8784 106.696Z" fill="#F5F7F8"/>
</g>
</svg>
