<svg width="186" height="186" viewBox="0 0 186 186" fill="none" xmlns="http://www.w3.org/2000/svg">
<g opacity="0.4">
<path d="M129.674 97.4212L125.368 90.3537C124.631 89.1448 124.309 87.046 124.636 85.6991L126.598 77.6179C127.397 74.3255 125.357 70.9778 122.065 70.1785L114.021 68.2256C112.674 67.8986 110.957 66.6497 110.22 65.4408L105.914 58.3733C104.157 55.4906 100.341 54.5641 97.4585 56.3206L90.3163 60.6086C89.1448 61.3542 87.046 61.6767 85.6617 61.3406L77.6178 59.3877C74.3255 58.5884 70.9778 60.6282 70.1784 63.9205L68.2256 71.9644C67.8986 73.3113 66.6497 75.0286 65.4408 75.7652L58.3733 80.0713C55.4906 81.8278 54.5641 85.644 56.3205 88.5267L60.6267 95.5942C61.3633 96.8031 61.6857 98.9019 61.3587 100.249L59.4059 108.293C58.6066 111.585 60.6463 114.933 63.9387 115.732L71.9825 117.685C73.3294 118.012 75.0467 119.261 75.7833 120.47L80.0895 127.537C81.8459 130.42 85.6621 131.346 88.5449 129.59L95.6123 125.284C96.8212 124.547 98.92 124.225 100.267 124.552L108.311 126.505C111.603 127.304 114.951 125.264 115.75 121.972L117.703 113.928C118.03 112.581 119.279 110.864 120.488 110.127L127.555 105.821C130.541 104.129 131.468 100.313 129.674 97.4212ZM80.7523 78.1354C81.2518 76.0777 83.3442 74.8029 85.4019 75.3024C87.4596 75.802 88.7345 77.8943 88.2349 79.9521C87.7353 82.0098 85.6804 83.2937 83.5853 82.7851C81.5276 82.2855 80.2527 80.1932 80.7523 78.1354ZM80.5452 103.956C79.8478 104.381 79.0734 104.47 78.3625 104.298C77.6516 104.125 77.0044 103.691 76.5794 102.993C75.7579 101.645 76.1938 99.8489 77.5422 99.0274L105.44 82.0293C106.788 81.2077 108.584 81.6437 109.406 82.9921C110.227 84.3405 109.791 86.1363 108.443 86.9579L80.5452 103.956ZM100.583 110.683C98.4882 110.174 97.2133 108.082 97.7129 106.024C98.2125 103.966 100.305 102.692 102.363 103.191C104.42 103.691 105.695 105.783 105.196 107.841C104.696 109.898 102.641 111.182 100.583 110.683Z" fill="#FF981F"/>
<path d="M39.0116 97.4541L31.8348 85.6749C28.9073 80.8703 30.4515 74.51 35.2561 71.5826L47.0351 64.4055C49.0499 63.1778 51.1315 60.3156 51.6765 58.0708L54.9313 44.6643C56.2635 39.177 61.843 35.7775 67.3303 37.1097L80.7366 40.3645C82.9814 40.9095 86.4795 40.3723 88.4943 39.1446L100.273 31.9675C105.078 29.0401 111.438 30.5842 114.366 35.3889L121.543 47.1681C122.77 49.1829 125.632 51.2642 127.877 51.8092L141.284 55.064C146.771 56.3962 150.171 61.9756 148.838 67.4629L145.584 80.8694C145.039 83.1142 145.576 86.6123 146.804 88.6271L153.981 100.406C156.908 105.211 155.364 111.571 150.559 114.499L138.78 121.676C136.765 122.903 134.684 125.766 134.139 128.01L130.884 141.416C129.552 146.903 123.972 150.304 118.485 148.972L105.079 145.717C102.834 145.172 99.336 145.709 97.3211 146.937L85.5419 154.114C80.7373 157.041 74.377 155.497 71.4495 150.692L64.2727 138.913C63.045 136.898 60.1828 134.817 57.938 134.272L44.5316 131.017C39.0443 129.685 35.6448 124.105 36.977 118.618L40.2317 105.212C40.7918 102.905 40.2544 99.4066 39.0116 97.4541Z" stroke="#FF981F" stroke-width="2" stroke-linecap="round" stroke-linejoin="round"/>
</g>
</svg>
