<svg width="995" height="751" viewBox="0 0 995 751" fill="none" xmlns="http://www.w3.org/2000/svg">
<path d="M0.983385 454.189C-0.641179 435.435 -6.32287 384.011 48.2108 370.301C77.7343 362.878 115.36 364.726 134.668 391.032C153.977 417.338 162.535 443.112 139.979 463.555C120.635 481.086 97.8908 494.45 58.3741 498.846C28.1174 502.212 3.40971 482.199 0.983385 454.189Z" fill="#F9FAFB"/>
<path d="M841.313 374.998C799.826 367.888 809.764 307.486 848.567 279.004C869.611 263.557 878.646 274.21 912.611 265.67C942.135 258.247 958.038 295.794 953.498 310.784C947.328 331.157 948.775 357.704 926.858 362.721C894.811 370.058 893.172 383.886 841.313 374.998Z" fill="#F9FAFB"/>
<path d="M203.222 626.995L253.333 587.622C404.122 486.004 503.689 420.055 673.462 371.196C775.054 341.959 745.868 458.587 722.686 478.841C699.504 499.095 666.995 518.047 632.001 544.112C512.249 633.309 434.128 675.11 295.447 736.754C245.017 759.17 214.899 750.544 186.432 736.467C148.476 717.698 158.123 662.432 203.222 626.995Z" fill="#F9FAFB"/>
<path d="M243.947 260.475L294.057 221.101C444.846 119.484 544.414 53.5345 714.187 4.67575C815.778 -24.5611 786.592 92.0663 763.411 112.321C740.229 132.575 707.719 151.526 672.726 177.591C552.974 266.789 474.853 308.589 336.171 370.233C285.741 392.649 255.623 384.023 227.156 369.946C189.2 351.177 198.847 295.911 243.947 260.475Z" fill="#F9FAFB"/>
</svg>
