<svg xmlns="http://www.w3.org/2000/svg" width="24" height="25" viewBox="0 0 24 25" fill="none">
  <path d="M17 2.33374H7C4.23858 2.33374 2 4.57232 2 7.33374V17.3337C2 20.0952 4.23858 22.3337 7 22.3337H17C19.7614 22.3337 22 20.0952 22 17.3337V7.33374C22 4.57232 19.7614 2.33374 17 2.33374Z" stroke="#F3BF24" stroke-width="2" stroke-linecap="round" stroke-linejoin="round"/>
  <path d="M16 11.7038C16.1234 12.536 15.9813 13.386 15.5938 14.1328C15.2063 14.8796 14.5932 15.4852 13.8416 15.8635C13.0901 16.2417 12.2385 16.3734 11.4078 16.2397C10.5771 16.1061 9.80977 15.7139 9.21485 15.119C8.61993 14.524 8.22774 13.7567 8.09408 12.926C7.96042 12.0954 8.09208 11.2437 8.47034 10.4922C8.8486 9.74065 9.4542 9.12754 10.201 8.74004C10.9478 8.35254 11.7978 8.21039 12.63 8.3338C13.4789 8.45968 14.2649 8.85526 14.8717 9.4621C15.4785 10.0689 15.8741 10.8549 16 11.7038Z" stroke="#F3BF24" stroke-width="2" stroke-linecap="round" stroke-linejoin="round"/>
  <path d="M17.5 6.83374H17.51" stroke="#F3BF24" stroke-width="2" stroke-linecap="round" stroke-linejoin="round"/>
</svg>