<svg xmlns="http://www.w3.org/2000/svg" width="24" height="25" viewBox="0 0 24 25" fill="none">
  <path d="M16 8.33374C17.5913 8.33374 19.1174 8.96588 20.2426 10.0911C21.3679 11.2163 22 12.7424 22 14.3337V21.3337H18V14.3337C18 13.8033 17.7893 13.2946 17.4142 12.9195C17.0391 12.5445 16.5304 12.3337 16 12.3337C15.4696 12.3337 14.9609 12.5445 14.5858 12.9195C14.2107 13.2946 14 13.8033 14 14.3337V21.3337H10V14.3337C10 12.7424 10.6321 11.2163 11.7574 10.0911C12.8826 8.96588 14.4087 8.33374 16 8.33374V8.33374Z" stroke="#F3BF24" stroke-width="2" stroke-linecap="round" stroke-linejoin="round"/>
  <path d="M6 9.33374H2V21.3337H6V9.33374Z" stroke="#F3BF24" stroke-width="2" stroke-linecap="round" stroke-linejoin="round"/>
  <path d="M4 6.33374C5.10457 6.33374 6 5.43831 6 4.33374C6 3.22917 5.10457 2.33374 4 2.33374C2.89543 2.33374 2 3.22917 2 4.33374C2 5.43831 2.89543 6.33374 4 6.33374Z" stroke="#F3BF24" stroke-width="2" stroke-linecap="round" stroke-linejoin="round"/>
</svg>