<svg xmlns="http://www.w3.org/2000/svg" width="121" height="151" viewBox="0 0 121 151" fill="none">
  <path d="M59.9203 119.117L2.00591 119.12L2.00302 61.2067C2.00461 61.1764 2.00529 61.146 2.00504 61.1155C2.00368 60.9517 2.003 60.7878 2.00299 60.6237C2.00138 28.3171 28.1897 2.12615 60.4963 2.12454C92.8029 2.12293 118.994 28.3113 118.996 60.6179C118.997 92.9245 92.8088 119.115 60.5022 119.117C60.3381 119.117 60.1742 119.116 60.0103 119.115C59.9802 119.115 59.9502 119.116 59.9203 119.117ZM2.00654 131.719L31.6445 131.718L31.6454 148.877L2.00739 148.878L2.00654 131.719Z" fill="white" stroke="#87A7E6" stroke-width="3" stroke-linejoin="round"/>
  <path d="M15.4027 70.6677C15.2533 68.9436 14.731 64.216 19.7444 62.9556C22.4586 62.2732 25.9176 62.4431 27.6927 64.8614C29.4678 67.2798 30.2546 69.6494 28.1809 71.5287C26.4026 73.1404 24.3116 74.3689 20.6787 74.7731C17.8972 75.0825 15.6257 73.2427 15.4027 70.6677Z" fill="#1BDE6C"/>
  <path d="M93.1345 63.836C89.3205 63.1824 90.2342 57.6294 93.8014 55.011C95.736 53.5909 96.5666 54.5703 99.6892 53.7852C102.403 53.1027 103.865 56.5546 103.448 57.9326C102.881 59.8056 103.014 62.2461 100.999 62.7074C98.0527 63.3819 97.9021 64.6531 93.1345 63.836Z" fill="#FF3E13"/>
  <path d="M34.5515 86.7146L39.1583 83.0949C53.0207 73.7529 62.1743 67.69 77.7819 63.1983C87.1215 60.5105 84.4384 71.2323 82.3072 73.0944C80.1761 74.9564 77.1874 76.6987 73.9703 79.0949C62.9612 87.2951 55.7793 91.1379 43.0299 96.805C38.3937 98.8658 35.6249 98.0728 33.0079 96.7786C29.5185 95.0531 30.4053 89.9724 34.5515 86.7146Z" fill="#FFC20D"/>
  <path d="M38.2246 52.4225L42.8314 48.8027C56.6938 39.4607 65.8473 33.3978 81.455 28.9061C90.7946 26.2183 88.1115 36.9402 85.9803 38.8022C83.8492 40.6643 80.8605 42.4065 77.6434 44.8027C66.6343 53.0029 59.4524 56.8457 46.703 62.5128C42.0668 64.5736 39.298 63.7806 36.681 62.4865C33.1916 60.761 34.0784 55.6802 38.2246 52.4225Z" fill="#2D71F3"/>
</svg>