<svg xmlns="http://www.w3.org/2000/svg" width="47" height="37" viewBox="0 0 47 37" fill="none">
  <path d="M0.0482945 22.377C-0.0314886 21.456 -0.310519 18.9305 2.36766 18.2572C3.81757 17.8927 5.6654 17.9834 6.61363 19.2753C7.56187 20.5672 7.98218 21.833 6.87442 22.837C5.92447 23.6979 4.80746 24.3542 2.86678 24.5701C1.38086 24.7354 0.167453 23.7526 0.0482945 22.377Z" fill="#1BDE6C"/>
  <path d="M41.3173 18.4879C39.2799 18.1387 39.7679 15.1723 41.6735 13.7735C42.707 13.0149 43.1507 13.5381 44.8188 13.1187C46.2687 12.7542 47.0497 14.5981 46.8268 15.3343C46.5238 16.3348 46.5948 17.6385 45.5185 17.885C43.9446 18.2453 43.8641 18.9244 41.3173 18.4879Z" fill="#FF3E13"/>
  <path d="M9.98033 30.8636L12.4413 28.9299C19.8466 23.9394 24.7364 20.7006 33.074 18.3012C38.0633 16.8653 36.6299 22.593 35.4915 23.5877C34.353 24.5824 32.7564 25.5131 31.0379 26.7931C25.1568 31.1737 21.3203 33.2265 14.5095 36.2539C12.0329 37.3547 10.5538 36.9311 9.15575 36.2398C7.29171 35.318 7.76546 32.6039 9.98033 30.8636Z" fill="#FFC20D"/>
  <path d="M11.9803 12.8636L14.4413 10.9299C21.8466 5.93943 26.7364 2.70064 35.074 0.301162C40.0633 -1.13468 38.6299 4.59296 37.4915 5.58766C36.353 6.58236 34.7564 7.51307 33.0379 8.79314C27.1568 13.1737 23.3203 15.2265 16.5095 18.2539C14.0329 19.3547 12.5538 18.9311 11.1557 18.2398C9.29171 17.318 9.76546 14.6039 11.9803 12.8636Z" fill="#2D71F3"/>
</svg>