<svg xmlns="http://www.w3.org/2000/svg" width="64" height="64" viewBox="0 0 64 64" fill="none">
  <g clip-path="url(#clip0_1_246)">
    <path d="M41.1725 25.65C40.4365 25.5688 39.6984 25.7832 39.1206 26.2462C38.5427 26.7092 38.1725 27.3828 38.0913 28.1187C38.01 28.8547 38.2245 29.5928 38.6875 30.1707C39.1505 30.7485 39.824 31.1188 40.56 31.2C40.6634 31.2114 40.7673 31.2173 40.8713 31.2175C41.5839 31.2148 42.2685 30.9397 42.7849 30.4486C43.3013 29.9575 43.6105 29.2875 43.649 28.5759C43.6875 27.8643 43.4525 27.1649 42.992 26.6209C42.5316 26.077 41.8807 25.7296 41.1725 25.65ZM41.7775 28.525C41.7644 28.6446 41.7276 28.7604 41.6695 28.8657C41.6114 28.9711 41.5329 29.0639 41.4388 29.1387C41.3246 29.2303 41.1901 29.2931 41.0466 29.322C40.9032 29.3509 40.7549 29.345 40.6142 29.3048C40.4735 29.2646 40.3444 29.1913 40.2379 29.091C40.1313 28.9907 40.0503 28.8664 40.0017 28.7283C39.953 28.5903 39.9381 28.4427 39.9582 28.2977C39.9784 28.1528 40.0329 28.0148 40.1173 27.8952C40.2017 27.7757 40.3136 27.6781 40.4434 27.6107C40.5733 27.5432 40.7174 27.5078 40.8638 27.5075C40.8979 27.5056 40.9321 27.5056 40.9663 27.5075C41.2079 27.5345 41.4291 27.6563 41.5811 27.8461C41.7332 28.0359 41.8038 28.2782 41.7775 28.52V28.525ZM61.625 56.8387C61.4396 56.8387 61.2583 56.8937 61.1042 56.9967C60.95 57.0998 60.8298 57.2462 60.7589 57.4175C60.6879 57.5888 60.6693 57.7773 60.7055 57.9591C60.7417 58.141 60.831 58.308 60.9621 58.4392C61.0932 58.5703 61.2602 58.6596 61.4421 58.6957C61.624 58.7319 61.8125 58.7133 61.9838 58.6424C62.1551 58.5714 62.3015 58.4513 62.4045 58.2971C62.5075 58.1429 62.5625 57.9617 62.5625 57.7762C62.5625 57.5276 62.4637 57.2892 62.2879 57.1133C62.1121 56.9375 61.8736 56.8387 61.625 56.8387ZM3.3925 6.02875C3.3925 5.84333 3.33752 5.66207 3.2345 5.5079C3.13149 5.35373 2.98507 5.23357 2.81377 5.16261C2.64246 5.09165 2.45396 5.07309 2.2721 5.10926C2.09025 5.14543 1.9232 5.23472 1.79209 5.36583C1.66098 5.49695 1.57169 5.66399 1.53551 5.84585C1.49934 6.02771 1.51791 6.21621 1.58886 6.38751C1.65982 6.55882 1.77998 6.70524 1.93415 6.80825C2.08832 6.91126 2.26958 6.96625 2.455 6.96625C2.70364 6.96625 2.9421 6.86748 3.11791 6.69166C3.29373 6.51584 3.3925 6.27739 3.3925 6.02875ZM62.5375 61.6137H59.2875C59.0995 61.6115 58.9138 61.5721 58.741 61.498C58.5682 61.4239 58.4117 61.3164 58.2805 61.1817C58.1493 61.047 58.046 60.8878 57.9764 60.7131C57.9068 60.5384 57.8724 60.3517 57.875 60.1637V45.6825C57.8697 45.3039 58.0147 44.9386 58.2783 44.6667C58.542 44.3949 58.9026 44.2387 59.2812 44.2325H62.5312C62.7799 44.2325 63.0183 44.1337 63.1942 43.9579C63.37 43.7821 63.4688 43.5436 63.4688 43.295C63.4688 43.0464 63.37 42.8079 63.1942 42.6321C63.0183 42.4563 62.7799 42.3575 62.5312 42.3575H59.2812C58.5378 42.3623 57.8179 42.6181 57.2381 43.0835C56.6584 43.5488 56.2529 44.1965 56.0875 44.9212L51.5 42.9775C51.4594 42.9603 51.4177 42.9461 51.375 42.935C50.2357 42.6357 49.0364 42.653 47.9062 42.985L36.5563 46.3212C36.0603 46.4688 35.601 46.7193 35.2083 47.0564C34.8157 47.3935 34.4985 47.8096 34.2775 48.2775C34.0798 48.6955 33.9612 49.1464 33.9275 49.6075L27.0975 46.6075C27.053 46.588 27.007 46.5721 26.96 46.56C26.3955 46.4117 25.8042 46.3968 25.2329 46.5165C24.6617 46.6363 24.1262 46.8874 23.6688 47.25C23.1968 47.6232 22.8176 48.1006 22.5609 48.6447C22.3041 49.1889 22.1769 49.7851 22.189 50.3867C22.2011 50.9882 22.3522 51.5788 22.6307 52.1122C22.9091 52.6456 23.3071 53.1073 23.7938 53.4612L33.085 60.395C34.8463 61.7135 36.9874 62.4257 39.1875 62.425C39.5633 62.4251 39.9389 62.4046 40.3125 62.3637H40.3462L56 60.055V60.1637C55.9953 61.0394 56.3382 61.8813 56.9533 62.5046C57.5684 63.1279 58.4056 63.4818 59.2812 63.4887H62.5312C62.7799 63.4887 63.0183 63.39 63.1942 63.2142C63.37 63.0383 63.4688 62.7999 63.4688 62.5512C63.4688 62.3026 63.37 62.0641 63.1942 61.8883C63.0183 61.7125 62.7799 61.6137 62.5312 61.6137H62.5375ZM56 58.16L40.0962 60.5C38.002 60.7288 35.899 60.1538 34.2125 58.8912L24.9137 51.9512L24.8962 51.9387C24.6446 51.7556 24.4387 51.5168 24.2945 51.241C24.1503 50.9651 24.0718 50.6597 24.065 50.3486C24.0582 50.0374 24.1234 49.7289 24.2554 49.4471C24.3875 49.1652 24.5828 48.9177 24.8263 48.7237C25.0484 48.5493 25.3064 48.4264 25.5819 48.364C25.8573 48.3015 26.1431 48.301 26.4188 48.3625L34.5137 51.9125C34.8424 52.4269 35.2952 52.8505 35.8303 53.1442C36.3654 53.438 36.9658 53.5926 37.5762 53.5937C37.8451 53.5916 38.1129 53.5601 38.375 53.5L46.4375 51.6812C46.6802 51.6265 46.8912 51.4777 47.0241 51.2674C47.157 51.0571 47.201 50.8027 47.1463 50.56C47.0915 50.3173 46.9427 50.1063 46.7324 49.9734C46.5221 49.8405 46.2677 49.7965 46.025 49.8512L37.9625 51.675C37.8357 51.7033 37.7062 51.7179 37.5762 51.7187C37.2248 51.7164 36.8819 51.6102 36.5906 51.4136C36.2992 51.217 36.0725 50.9388 35.9388 50.6137C35.8361 50.3703 35.786 50.108 35.7919 49.8439C35.7977 49.5798 35.8592 49.3199 35.9725 49.0812C36.0788 48.8508 36.2332 48.6459 36.4253 48.4801C36.6174 48.3143 36.8428 48.1915 37.0863 48.12L48.4362 44.7837C49.218 44.5544 50.0467 44.5367 50.8375 44.7325L56 46.92V58.16ZM37.625 42.21C38.1356 42.2107 38.6413 42.1107 39.1132 41.9158C39.5851 41.7208 40.0138 41.4347 40.375 41.0737L54.335 27.125C54.6962 26.7639 54.9827 26.3352 55.1782 25.8633C55.3736 25.3915 55.4742 24.8857 55.4742 24.375C55.4742 23.8643 55.3736 23.3585 55.1782 22.8867C54.9827 22.4148 54.6962 21.9861 54.335 21.625L40.375 7.685C39.6662 6.97852 38.713 6.57155 37.7125 6.54829C36.712 6.52502 35.7409 6.88724 35 7.56L31.0238 3.9475C29.7822 2.82712 28.2839 2.0295 26.6612 1.625L21.3625 0.299997C19.1033 -0.258296 16.7211 -0.0258064 14.6125 0.958747L7.14 4.45875V4.325C7.13967 3.58735 6.84658 2.87999 6.3251 2.35828C5.80362 1.83657 5.0964 1.54316 4.35875 1.5425H0.9375C0.68886 1.5425 0.450403 1.64127 0.274587 1.81708C0.098772 1.9929 0 2.23136 0 2.48C0 2.72864 0.098772 2.96709 0.274587 3.14291C0.450403 3.31872 0.68886 3.4175 0.9375 3.4175H4.35875C4.59835 3.41915 4.82757 3.51549 4.99641 3.6855C5.16525 3.85551 5.26001 4.08539 5.26 4.325V17.8525C5.26153 17.9722 5.23934 18.0911 5.19472 18.2022C5.15009 18.3134 5.08392 18.4146 5 18.5C4.91681 18.5837 4.81787 18.6501 4.70888 18.6954C4.59989 18.7407 4.48302 18.7639 4.365 18.7637H0.945C0.69636 18.7637 0.457903 18.8625 0.282087 19.0383C0.106272 19.2141 0.0075 19.4526 0.0075 19.7012C0.0075 19.9499 0.106272 20.1883 0.282087 20.3642C0.457903 20.54 0.69636 20.6387 0.945 20.6387H4.36625C5.07602 20.6391 5.75884 20.3669 6.27381 19.8785C6.78878 19.39 7.0966 18.7225 7.13375 18.0137L10.9475 19.0575C11.0087 19.0748 11.0715 19.0853 11.135 19.0887L18.0387 19.535L21.9562 20.5975L20.9188 21.6325C20.5576 21.9936 20.2711 22.4223 20.0756 22.8942C19.8801 23.366 19.7795 23.8718 19.7795 24.3825C19.7795 24.8932 19.8801 25.399 20.0756 25.8708C20.2711 26.3427 20.5576 26.7714 20.9188 27.1325L34.875 41.0737C35.2362 41.4347 35.6649 41.7208 36.1368 41.9158C36.6087 42.1107 37.1144 42.2107 37.625 42.21ZM18.435 17.6962C18.3745 17.68 18.3125 17.6699 18.25 17.6662L11.3475 17.22L7.1375 16.0675V6.5325L15.405 2.6575C17.1251 1.85576 19.0681 1.66782 20.91 2.125L26.2087 3.44375C27.5313 3.77333 28.7523 4.42375 29.7638 5.3375L33.675 8.8825L31.2787 11.2762L28.765 9.0975C28.4705 8.84277 28.1143 8.66972 27.732 8.59558C27.3497 8.52145 26.9547 8.54883 26.5863 8.675L22.69 10.015C22.2844 10.1547 21.9279 10.4088 21.6634 10.7466C21.3989 11.0845 21.2378 11.4915 21.1995 11.9188C21.1612 12.3461 21.2473 12.7754 21.4474 13.1549C21.6476 13.5343 21.9532 13.8478 22.3275 14.0575L23.3363 14.6212L27.7687 17.1012C28.065 17.2664 28.2979 17.5254 28.4309 17.8374C28.564 18.1493 28.5896 18.4967 28.5037 18.8248C28.4179 19.1529 28.2254 19.4432 27.9566 19.6501C27.6878 19.8569 27.3579 19.9686 27.0187 19.9675C26.8832 19.9678 26.7482 19.9497 26.6175 19.9137L18.435 17.6962ZM29.9487 12.605L27.6588 14.8912L23.2425 12.4212C23.1839 12.3883 23.1361 12.3391 23.1048 12.2796C23.0735 12.22 23.0601 12.1527 23.0661 12.0858C23.0722 12.0188 23.0975 11.955 23.139 11.9021C23.1805 11.8492 23.2364 11.8094 23.3 11.7875L27.195 10.4475C27.253 10.428 27.3151 10.424 27.3752 10.4359C27.4352 10.4477 27.4912 10.475 27.5375 10.515L29.9487 12.605ZM21.65 24.375C21.6495 24.1107 21.7013 23.8488 21.8026 23.6047C21.9039 23.3605 22.0525 23.1388 22.24 22.9525L24.0387 21.155L26.1313 21.7237C26.8712 21.9255 27.6577 21.8715 28.3632 21.5705C29.0686 21.2695 29.6518 20.7391 30.0182 20.0653C30.3846 19.3915 30.5128 18.6137 30.382 17.8579C30.2512 17.1022 29.8691 16.4127 29.2975 15.9012L36.1987 9.0125C36.5774 8.63496 37.0903 8.42295 37.625 8.42295C38.1597 8.42295 38.6726 8.63496 39.0513 9.0125L53.01 22.9562C53.197 23.143 53.3454 23.3649 53.4467 23.6091C53.5479 23.8533 53.6 24.115 53.6 24.3794C53.6 24.6437 53.5479 24.9055 53.4467 25.1497C53.3454 25.3939 53.197 25.6157 53.01 25.8025L39.0513 39.75C38.6726 40.1275 38.1597 40.3395 37.625 40.3395C37.0903 40.3395 36.5774 40.1275 36.1987 39.75L22.24 25.8025C22.0519 25.6155 21.9029 25.3931 21.8016 25.148C21.7003 24.9029 21.6488 24.6402 21.65 24.375ZM42.735 20.3575C42.5797 20.1634 42.3536 20.039 42.1065 20.0116C41.8595 19.9841 41.6116 20.056 41.4175 20.2112L32.7337 27.1675C32.5396 27.323 32.4153 27.5492 32.3879 27.7964C32.3606 28.0436 32.4326 28.2915 32.5881 28.4856C32.7436 28.6797 32.9698 28.8041 33.217 28.8314C33.4642 28.8587 33.7121 28.7867 33.9062 28.6312L42.59 21.675C42.7828 21.5196 42.9062 21.2942 42.9334 21.048C42.9606 20.8019 42.8892 20.555 42.735 20.3612V20.3575ZM34.0775 23.1075C34.1813 23.1185 34.2856 23.1239 34.39 23.1237C35.1134 23.1206 35.8071 22.8354 36.3235 22.3289C36.84 21.8223 37.1386 21.1343 37.1558 20.4111C37.173 19.6879 36.9075 18.9865 36.4157 18.4559C35.9239 17.9254 35.2446 17.6076 34.5221 17.57C33.7997 17.5325 33.0911 17.7781 32.5469 18.2548C32.0027 18.7314 31.6659 19.4015 31.608 20.1226C31.5501 20.8437 31.7757 21.559 32.2368 22.1164C32.698 22.6737 33.3583 23.0293 34.0775 23.1075ZM33.4725 20.2325C33.4893 20.0829 33.5428 19.9398 33.628 19.8158C33.7133 19.6918 33.8278 19.5907 33.9615 19.5215C34.0951 19.4522 34.2437 19.417 34.3942 19.4188C34.5447 19.4206 34.6925 19.4595 34.8244 19.532C34.9562 19.6045 35.0683 19.7084 35.1505 19.8345C35.2327 19.9605 35.2826 20.1049 35.2957 20.2549C35.3089 20.4048 35.2849 20.5556 35.2259 20.6941C35.1669 20.8326 35.0747 20.9544 34.9575 21.0487C34.8159 21.162 34.6439 21.2307 34.4633 21.2462C34.2827 21.2618 34.1015 21.2235 33.9426 21.1362C33.7837 21.0488 33.6543 20.9164 33.5706 20.7556C33.487 20.5947 33.4528 20.4127 33.4725 20.2325Z" fill="white" stroke="white" stroke-width="0.5"/>
  </g>
  <defs>
    <clipPath id="clip0_1_246">
      <rect width="64" height="64" fill="white"/>
    </clipPath>
  </defs>
</svg>