<svg xmlns="http://www.w3.org/2000/svg" width="24" height="25" viewBox="0 0 24 25" fill="none">
  <path d="M23 3.33379C22.0424 4.00926 20.9821 4.5259 19.86 4.86379C19.2577 4.1713 18.4573 3.68048 17.567 3.45771C16.6767 3.23495 15.7395 3.29098 14.8821 3.61824C14.0247 3.9455 13.2884 4.52819 12.773 5.2875C12.2575 6.04682 11.9877 6.94612 12 7.86379V8.86379C10.2426 8.90935 8.50127 8.5196 6.93101 7.72923C5.36074 6.93887 4.01032 5.77242 3 4.33379C3 4.33379 -1 13.3338 8 17.3338C5.94053 18.7318 3.48716 19.4327 1 19.3338C10 24.3338 21 19.3338 21 7.83379C20.9991 7.55524 20.9723 7.27738 20.92 7.00379C21.9406 5.99728 22.6608 4.7265 23 3.33379V3.33379Z" stroke="#F3BF24" stroke-width="2" stroke-linecap="round" stroke-linejoin="round"/>
</svg>