<svg xmlns="http://www.w3.org/2000/svg" width="62" height="56" viewBox="0 0 62 56" fill="none">
<path d="M31.03 4.66663C24.9166 4.66663 19.9466 9.63663 19.9466 15.75C19.9466 21.7466 24.6366 26.6 30.75 26.81C30.9366 26.7866 31.1233 26.7866 31.2633 26.81C31.31 26.81 31.3333 26.81 31.38 26.81C31.4033 26.81 31.4033 26.81 31.4266 26.81C37.4 26.6 42.09 21.7466 42.1133 15.75C42.1133 9.63663 37.1433 4.66663 31.03 4.66663Z" fill="#1A96F0"/>
<path d="M42.8832 33.0166C36.3732 28.6766 25.7565 28.6766 19.1999 33.0166C16.2365 34.9999 14.6032 37.6833 14.6032 40.5533C14.6032 43.4233 16.2365 46.0833 19.1765 48.0433C22.4432 50.2366 26.7365 51.3333 31.0299 51.3333C35.3232 51.3333 39.6165 50.2366 42.8832 48.0433C45.8232 46.0599 47.4565 43.3999 47.4565 40.5066C47.4332 37.6366 45.8232 34.9766 42.8832 33.0166Z" fill="#1A96F0"/>
<path d="M56.673 17.1266C57.0463 21.6533 53.8263 25.6199 49.3696 26.1566C49.3463 26.1566 49.3463 26.1566 49.323 26.1566H49.253C49.113 26.1566 48.973 26.1566 48.8563 26.2033C46.593 26.3199 44.5163 25.5966 42.953 24.2666C45.3563 22.1199 46.733 18.8999 46.453 15.3999C46.2896 13.5099 45.6363 11.7833 44.6563 10.3133C45.543 9.86995 46.5696 9.58995 47.6196 9.49661C52.193 9.09995 56.2763 12.5066 56.673 17.1266Z" fill="#1A96F0"/>
<path d="M61.3405 38.71C61.1538 40.9734 59.7072 42.9334 57.2805 44.2634C54.9472 45.5467 52.0072 46.1534 49.0905 46.0834C50.7705 44.5667 51.7505 42.6767 51.9372 40.67C52.1705 37.7767 50.7938 35 48.0405 32.7834C46.4772 31.5467 44.6572 30.5667 42.6738 29.8434C47.8305 28.35 54.3172 29.3534 58.3072 32.5734C60.4538 34.3 61.5505 36.47 61.3405 38.71Z" fill="#1A96F0"/>
<path d="M5.35959 17.1266C4.98626 21.6533 8.20625 25.6199 12.6629 26.1566C12.6863 26.1566 12.6863 26.1566 12.7096 26.1566H12.7796C12.9196 26.1566 13.0596 26.1566 13.1763 26.2033C15.4396 26.3199 17.5163 25.5966 19.0796 24.2666C16.6763 22.1199 15.2996 18.8999 15.5796 15.3999C15.7429 13.5099 16.3963 11.7833 17.3763 10.3133C16.4896 9.86995 15.4629 9.58995 14.4129 9.49661C9.83959 9.09995 5.75626 12.5066 5.35959 17.1266Z" fill="#1A96F0"/>
<path d="M0.692066 38.71C0.878733 40.9734 2.3254 42.9334 4.75207 44.2634C7.0854 45.5467 10.0254 46.1534 12.9421 46.0834C11.2621 44.5667 10.2821 42.6767 10.0954 40.67C9.86207 37.7767 11.2387 35 13.9921 32.7834C15.5554 31.5467 17.3754 30.5667 19.3587 29.8434C14.2021 28.35 7.7154 29.3534 3.7254 32.5734C1.57873 34.3 0.482067 36.47 0.692066 38.71Z" fill="#1A96F0"/>
</svg>